<svg width="28" height="28" viewBox="0 0 28 28" fill="none" xmlns="http://www.w3.org/2000/svg">
<path d="M3.2085 3.79175L5.63516 4.21175L6.75866 17.5969C6.80182 18.1236 7.04198 18.6147 7.43123 18.9722C7.82047 19.3296 8.33019 19.5272 8.85866 19.5254H21.587C22.093 19.526 22.5822 19.3438 22.9646 19.0124C23.347 18.681 23.5969 18.2227 23.6683 17.7217L24.7767 10.0707C24.8062 9.86727 24.7954 9.65996 24.7447 9.46068C24.6941 9.2614 24.6047 9.07406 24.4816 8.90936C24.3585 8.74467 24.2041 8.60585 24.0274 8.50084C23.8506 8.39584 23.6548 8.32671 23.4513 8.29742C23.3767 8.28925 6.02483 8.28341 6.02483 8.28341" stroke="white" stroke-width="1.5" stroke-linecap="round" stroke-linejoin="round"/>
<path d="M16.4795 12.5942H19.7147" stroke="white" stroke-width="1.5" stroke-linecap="round" stroke-linejoin="round"/>
<path fill-rule="evenodd" clip-rule="evenodd" d="M8.34672 23.5702C8.43228 23.5665 8.51769 23.5802 8.59782 23.6104C8.67795 23.6406 8.75114 23.6867 8.81298 23.746C8.87482 23.8052 8.92402 23.8763 8.95764 23.9551C8.99126 24.0339 9.00859 24.1186 9.00859 24.2042C9.00859 24.2899 8.99126 24.3746 8.95764 24.4534C8.92402 24.5322 8.87482 24.6033 8.81298 24.6625C8.75114 24.7218 8.67795 24.7679 8.59782 24.7981C8.51769 24.8283 8.43228 24.842 8.34672 24.8383C8.18326 24.8313 8.02882 24.7615 7.91563 24.6433C7.80244 24.5252 7.73926 24.3679 7.73926 24.2042C7.73926 24.0406 7.80244 23.8833 7.91563 23.7652C8.02882 23.647 8.18326 23.5772 8.34672 23.5702Z" fill="white" stroke="white" stroke-width="1.5" stroke-linecap="round" stroke-linejoin="round"/>
<path fill-rule="evenodd" clip-rule="evenodd" d="M21.5079 23.5703C21.6765 23.5703 21.8383 23.6373 21.9575 23.7565C22.0767 23.8758 22.1437 24.0375 22.1437 24.2061C22.1437 24.3748 22.0767 24.5365 21.9575 24.6557C21.8383 24.775 21.6765 24.842 21.5079 24.842C21.3393 24.842 21.1775 24.775 21.0583 24.6557C20.9391 24.5365 20.8721 24.3748 20.8721 24.2061C20.8721 24.0375 20.9391 23.8758 21.0583 23.7565C21.1775 23.6373 21.3393 23.5703 21.5079 23.5703Z" fill="white" stroke="white" stroke-width="1.5" stroke-linecap="round" stroke-linejoin="round"/>
</svg>
