<svg width="10" height="10" viewBox="0 0 10 10" fill="none" xmlns="http://www.w3.org/2000/svg">
<path d="M5.48885 7.88166C5.18538 7.71179 4.81544 7.71179 4.51197 7.88166L3.95325 8.1944C3.20864 8.6112 2.31769 7.96388 2.48399 7.12692L2.60877 6.4989C2.67655 6.15779 2.56223 5.80596 2.3069 5.56983L1.83683 5.13513C1.21033 4.55577 1.55065 3.50838 2.39804 3.4079L3.03386 3.33252C3.37922 3.29157 3.6785 3.07413 3.82417 2.75832L4.09235 2.17692C4.44976 1.40205 5.55105 1.40205 5.90846 2.17693L6.17663 2.75832C6.3223 3.07412 6.62158 3.29157 6.96695 3.33252L7.60276 3.4079C8.45015 3.50838 8.79047 4.55576 8.16397 5.13513L7.69391 5.56983C7.43858 5.80596 7.32426 6.15778 7.39204 6.4989L7.51682 7.12692C7.68312 7.96388 6.79217 8.6112 6.04756 8.1944L5.48885 7.88166Z" fill="#FCA311"/>
</svg>
