<svg width="40" height="40" viewBox="0 0 40 40" fill="none" xmlns="http://www.w3.org/2000/svg">
<g clip-path="url(#clip0_134_499)">
<path d="M38.0749 11.4282C37.9361 11.1358 37.5863 11.0115 37.2943 11.1504C37.0019 11.2892 36.8775 11.6387 37.0164 11.9311C38.2186 14.4616 38.8281 17.1765 38.8281 20.0001C38.8281 25.0293 36.8697 29.7575 33.3135 33.3136C29.7574 36.8698 25.0292 38.8282 20 38.8282C17.0174 38.8282 14.165 38.1514 11.5224 36.8165C9.32042 35.7041 7.33112 34.1425 5.7158 32.2659L8.0276 33.0365C8.33456 33.1389 8.66643 32.9729 8.76877 32.6659C8.87112 32.3589 8.70518 32.0271 8.39815 31.9247L4.23799 30.538C4.04534 30.4739 3.83315 30.5139 3.67729 30.644C3.52143 30.7742 3.44401 30.9757 3.47268 31.1768L4.16604 36.0303C4.20784 36.3225 4.45846 36.5334 4.74541 36.5334C4.77299 36.5334 4.80088 36.5315 4.82901 36.5275C5.1494 36.4817 5.37198 36.1849 5.3262 35.8646L4.93932 33.1565C6.63456 35.0925 8.70549 36.7064 10.9941 37.8625C13.8021 39.2809 16.8321 40.0001 20 40.0001C25.3421 40.0001 30.3646 37.9197 34.1421 34.1423C37.9196 30.3647 40 25.3423 40 20.0001C40 17.0011 39.3523 14.1172 38.0749 11.4282Z" fill="#272343"/>
<path d="M36.5273 8.82344L35.834 3.96992C35.7882 3.64953 35.4907 3.42711 35.1711 3.47273C34.8507 3.51852 34.6281 3.81531 34.6739 4.13562L35.0604 6.84094C31.2553 2.48125 25.8233 0 20 0C14.6578 0 9.63539 2.08039 5.85781 5.85781C2.08039 9.63539 0 14.6578 0 20C0 22.9991 0.647734 25.8831 1.92508 28.572C2.02539 28.7831 2.23555 28.9066 2.45477 28.9066C2.53898 28.9066 2.62461 28.8884 2.70578 28.8498C2.99805 28.7109 3.12242 28.3614 2.98359 28.0691C1.78141 25.5387 1.17188 22.8238 1.17188 20C1.17188 14.9708 3.13031 10.2427 6.68648 6.68648C10.2427 3.13031 14.9708 1.17188 20 1.17188C25.5356 1.17188 30.6955 3.55422 34.2825 7.73367L31.9724 6.96367C31.6652 6.86117 31.3335 7.02727 31.2313 7.3343C31.129 7.64133 31.2948 7.97312 31.6018 8.07547L35.762 9.46219C35.8226 9.48234 35.8851 9.49227 35.9472 9.49227C36.0825 9.49227 36.2158 9.44539 36.3227 9.35617C36.4786 9.22602 36.556 9.02445 36.5273 8.82344Z" fill="#272343"/>
<path d="M18.3715 26.3029H12.4775C12.7129 24.2521 14.1701 22.8762 15.7053 21.4266C17.3042 19.9169 18.9575 18.3558 18.9575 16.0116C18.9575 14.0892 17.2337 12.5251 15.115 12.5251C12.9962 12.5251 11.2725 14.0892 11.2725 16.0116C11.2725 16.3352 11.5348 16.5976 11.8584 16.5976C12.182 16.5976 12.4443 16.3352 12.4443 16.0116C12.4443 14.7354 13.6423 13.697 15.115 13.697C16.5876 13.697 17.7856 14.7354 17.7856 16.0116C17.7856 17.8507 16.3843 19.1738 14.9007 20.5746C13.2 22.1804 11.2725 24.0005 11.2725 26.8888C11.2725 27.2124 11.5348 27.4748 11.8584 27.4748H18.3715C18.6951 27.4748 18.9575 27.2124 18.9575 26.8888C18.9575 26.5652 18.6951 26.3029 18.3715 26.3029Z" fill="#272343"/>
<path d="M28.1415 22.5452H27.4749V13.1111C27.4749 12.7875 27.2127 12.5251 26.889 12.5251C26.5653 12.5251 26.3031 12.7875 26.3031 13.1111V22.5453H21.3324L23.081 13.2191C23.1407 12.9011 22.9312 12.5948 22.6131 12.5352C22.2954 12.4759 21.989 12.6851 21.9293 13.0031L20.0506 23.0233C20.0185 23.1946 20.0642 23.3713 20.1756 23.5055C20.2869 23.6396 20.4521 23.7172 20.6264 23.7172H26.3031V26.8888C26.3031 27.2123 26.5653 27.4747 26.889 27.4747C27.2127 27.4747 27.4749 27.2123 27.4749 26.8887V23.7171H28.1415C28.4652 23.7171 28.7274 23.4548 28.7274 23.1312C28.7274 22.8076 28.4652 22.5452 28.1415 22.5452Z" fill="#272343"/>
<path d="M20 3.13135C19.6764 3.13135 19.4141 3.39369 19.4141 3.71729V6.22228C19.4141 6.54588 19.6764 6.80822 20 6.80822C20.3237 6.80822 20.5859 6.54588 20.5859 6.22228V3.71729C20.5859 3.39369 20.3237 3.13135 20 3.13135Z" fill="#272343"/>
<path d="M20 33.1919C19.6764 33.1919 19.4141 33.4542 19.4141 33.7778V36.2828C19.4141 36.6064 19.6764 36.8688 20 36.8688C20.3237 36.8688 20.5859 36.6064 20.5859 36.2828V33.7778C20.5859 33.4542 20.3237 33.1919 20 33.1919Z" fill="#272343"/>
<path d="M36.2828 19.4141H33.7778C33.4542 19.4141 33.1919 19.6764 33.1919 20C33.1919 20.3236 33.4542 20.5859 33.7778 20.5859H36.2828C36.6065 20.5859 36.8688 20.3236 36.8688 20C36.8688 19.6764 36.6065 19.4141 36.2828 19.4141Z" fill="#272343"/>
<path d="M6.22228 19.4141H3.71729C3.39369 19.4141 3.13135 19.6764 3.13135 20C3.13135 20.3236 3.39369 20.5859 3.71729 20.5859H6.22228C6.54588 20.5859 6.80822 20.3236 6.80822 20C6.80822 19.6764 6.54588 19.4141 6.22228 19.4141Z" fill="#272343"/>
</g>
<defs>
<clipPath id="clip0_134_499">
<rect width="40" height="40" fill="white"/>
</clipPath>
</defs>
</svg>
