<svg width="16" height="16" viewBox="0 0 16 16" fill="none" xmlns="http://www.w3.org/2000/svg">
<path d="M2.66957 4.27766L0.507812 2.1159L1.45062 1.1731L3.61238 3.33486H13.7735C14.1417 3.33486 14.4402 3.63333 14.4402 4.00152C14.4402 4.0664 14.4307 4.13094 14.4121 4.19308L12.8121 9.52645C12.7275 9.80838 12.4679 10.0015 12.1735 10.0015H4.00291V11.3348H11.3363V12.6682H3.33624C2.96805 12.6682 2.66957 12.3697 2.66957 12.0015V4.27766ZM3.66957 15.3348C3.11729 15.3348 2.66957 14.8871 2.66957 14.3348C2.66957 13.7826 3.11729 13.3348 3.66957 13.3348C4.22186 13.3348 4.66957 13.7826 4.66957 14.3348C4.66957 14.8871 4.22186 15.3348 3.66957 15.3348ZM11.6696 15.3348C11.1173 15.3348 10.6696 14.8871 10.6696 14.3348C10.6696 13.7826 11.1173 13.3348 11.6696 13.3348C12.2219 13.3348 12.6696 13.7826 12.6696 14.3348C12.6696 14.8871 12.2219 15.3348 11.6696 15.3348Z" fill="#14213D"/>
</svg>
