<svg width="21" height="25" viewBox="0 0 21 25" fill="none" xmlns="http://www.w3.org/2000/svg">
<path d="M10.9246 7.09214C9.93596 7.09214 8.40561 5.98999 6.79401 6.02982C4.66779 6.05638 2.71762 7.23821 1.62065 9.11054C-0.586838 12.8685 1.05185 18.4191 3.20516 21.4733C4.2615 22.9605 5.50744 24.6336 7.15967 24.5805C8.74419 24.5141 9.34007 23.5713 11.2632 23.5713C13.1727 23.5713 13.7144 24.5805 15.3937 24.5407C17.1001 24.5141 18.1835 23.0269 19.2263 21.5264C20.4317 19.8001 20.9328 18.127 20.9598 18.034C20.9192 18.0207 17.6418 16.7858 17.6012 13.0677C17.5741 9.96039 20.1879 8.47315 20.3098 8.40676C18.8201 6.26885 16.5313 6.02983 15.7323 5.97671C13.6467 5.81736 11.8997 7.09214 10.9246 7.09214ZM14.4457 3.95831C15.326 2.92255 15.9084 1.47514 15.7458 0.0410156C14.4864 0.0941314 12.9696 0.864311 12.0622 1.90007C11.2496 2.81632 10.5454 4.29028 10.735 5.69785C12.1299 5.80408 13.5654 4.99407 14.4457 3.95831Z" fill="#212121"/>
</svg>
