<svg width="16" height="16" viewBox="0 0 16 16" fill="none" xmlns="http://www.w3.org/2000/svg">
<path d="M1.8335 2.16675L3.22016 2.40675L3.86216 10.0554C3.88682 10.3564 4.02406 10.637 4.24649 10.8413C4.46891 11.0455 4.76018 11.1584 5.06216 11.1574H12.3355C12.6247 11.1577 12.9042 11.0536 13.1227 10.8643C13.3412 10.6749 13.484 10.413 13.5248 10.1267L14.1582 5.75475C14.175 5.63847 14.1688 5.52001 14.1399 5.40614C14.111 5.29227 14.0599 5.18521 13.9895 5.0911C13.9192 4.99699 13.831 4.91766 13.73 4.85766C13.629 4.79766 13.5171 4.75816 13.4008 4.74141C13.3582 4.73675 3.44283 4.73341 3.44283 4.73341" stroke="#272343" stroke-width="1.5" stroke-linecap="round" stroke-linejoin="round"/>
<path d="M9.41699 7.19678H11.2657" stroke="#272343" stroke-width="1.5" stroke-linecap="round" stroke-linejoin="round"/>
<path fill-rule="evenodd" clip-rule="evenodd" d="M4.76948 13.4688C4.81837 13.4667 4.86718 13.4746 4.91297 13.4918C4.95876 13.5091 5.00058 13.5354 5.03592 13.5693C5.07125 13.6031 5.09937 13.6438 5.11858 13.6888C5.13779 13.7338 5.1477 13.7822 5.1477 13.8312C5.1477 13.8801 5.13779 13.9285 5.11858 13.9735C5.09937 14.0186 5.07125 14.0592 5.03592 14.0931C5.00058 14.1269 4.95876 14.1533 4.91297 14.1705C4.86718 14.1878 4.81837 14.1956 4.76948 14.1935C4.67608 14.1895 4.58782 14.1496 4.52315 14.0821C4.45847 14.0145 4.42236 13.9247 4.42236 13.8312C4.42236 13.7377 4.45847 13.6478 4.52315 13.5803C4.58782 13.5128 4.67608 13.4728 4.76948 13.4688Z" fill="#272343" stroke="#272343" stroke-width="1.5" stroke-linecap="round" stroke-linejoin="round"/>
<path fill-rule="evenodd" clip-rule="evenodd" d="M12.2901 13.4688C12.3865 13.4688 12.4789 13.507 12.547 13.5752C12.6151 13.6433 12.6534 13.7357 12.6534 13.8321C12.6534 13.9284 12.6151 14.0209 12.547 14.089C12.4789 14.1571 12.3865 14.1954 12.2901 14.1954C12.1937 14.1954 12.1013 14.1571 12.0332 14.089C11.965 14.0209 11.9268 13.9284 11.9268 13.8321C11.9268 13.7357 11.965 13.6433 12.0332 13.5752C12.1013 13.507 12.1937 13.4688 12.2901 13.4688Z" fill="#272343" stroke="#272343" stroke-width="1.5" stroke-linecap="round" stroke-linejoin="round"/>
</svg>
