<svg width="50" height="30" viewBox="0 0 50 30" fill="none" xmlns="http://www.w3.org/2000/svg">
<path d="M10.9088 23.6619C10.0732 23.6619 9.39355 24.3416 9.39355 25.1771C9.39355 26.0126 10.0732 26.6923 10.9088 26.6923C11.7443 26.6923 12.424 26.0126 12.424 25.1771C12.424 24.3416 11.7443 23.6619 10.9088 23.6619Z" fill="#272343"/>
<path d="M42.2223 23.6619C41.3867 23.6619 40.707 24.3416 40.707 25.1771C40.707 26.0126 41.3867 26.6923 42.2223 26.6923C43.0578 26.6923 43.7375 26.0126 43.7375 25.1771C43.7375 24.3416 43.0578 23.6619 42.2223 23.6619Z" fill="#272343"/>
<path d="M48.4286 13.9483L42.7896 12.0687L40.1539 4.8208C39.8249 3.91602 38.957 3.30811 37.9942 3.30811H31.2122V1.69199C31.2122 0.856445 30.5325 0.176758 29.697 0.176758H1.51523C0.679688 0.176758 0 0.856543 0 1.69209V22.8284C0 23.664 0.679688 24.3437 1.51523 24.3437H6.33887C6.28965 24.6142 6.2626 24.8924 6.2626 25.1769C6.2626 27.739 8.34707 29.8234 10.9092 29.8234C13.4713 29.8234 15.5558 27.739 15.5558 25.1769C15.5558 24.8923 15.5287 24.6142 15.4795 24.3437H37.6521C37.6028 24.6142 37.5758 24.8924 37.5758 25.1769C37.5758 27.739 39.6603 29.8234 42.2224 29.8234C44.7845 29.8234 46.8689 27.739 46.8689 25.1769C46.8689 24.8149 46.826 24.463 46.7474 24.1247L48.2973 23.3498C49.3475 22.8245 50 21.7686 50 20.594V16.1285C50 15.1379 49.3686 14.2617 48.4286 13.9483ZM1.46484 1.69209C1.46484 1.66426 1.4874 1.6416 1.51523 1.6416H29.697C29.7248 1.6416 29.7474 1.66416 29.7474 1.69199V17.3989H1.46484V1.69209ZM10.9091 28.3586C9.15469 28.3586 7.72734 26.9312 7.72734 25.1769C7.72734 23.4225 9.15469 21.9951 10.9091 21.9951C12.6635 21.9951 14.0908 23.4225 14.0908 25.1769C14.0909 26.9312 12.6636 28.3586 10.9091 28.3586ZM29.7474 22.8787H14.9451C14.144 21.4774 12.6355 20.5303 10.9091 20.5303C9.18262 20.5303 7.67422 21.4774 6.87314 22.8787H1.51523C1.4874 22.8787 1.46484 22.8562 1.46484 22.8283V18.8638H29.7474V22.8787ZM39.7166 7.9043L41.1766 11.9192H39.6039L38.1439 7.9043H39.7166ZM31.2122 4.77295H37.9942C38.3434 4.77295 38.658 4.99336 38.7773 5.32139L39.1839 6.43936H31.2122V4.77295ZM31.2122 7.9043H36.5853L38.0452 11.9192H31.2122V7.9043ZM42.2222 28.3586C40.4678 28.3586 39.0404 26.9312 39.0404 25.1769C39.0404 23.4225 40.4678 21.9951 42.2222 21.9951C43.9766 21.9951 45.4039 23.4225 45.4039 25.1769C45.4039 26.9312 43.9766 28.3586 42.2222 28.3586ZM48.5352 17.3988H47.702C47.2975 17.3988 46.9695 17.7268 46.9695 18.1312C46.9695 18.5357 47.2975 18.8637 47.702 18.8637H48.5352V20.5939C48.5352 21.2102 48.1929 21.764 47.6419 22.0396L46.192 22.7645C45.3756 21.4259 43.9016 20.5303 42.2222 20.5303C40.4957 20.5303 38.9873 21.4774 38.1862 22.8787H31.2122V18.8638H44.5707C44.9752 18.8638 45.3031 18.5358 45.3031 18.1313C45.3031 17.7269 44.9752 17.3989 44.5707 17.3989H31.2122V13.384H42.1033L47.9654 15.338C48.3062 15.4516 48.5352 15.7692 48.5352 16.1284V17.3988Z" fill="#272343"/>
<path d="M24.5807 8.88435L19.1009 5.7531C18.7498 5.55242 18.3023 5.67449 18.1016 6.02566C17.9009 6.37693 18.0229 6.8243 18.3741 7.02498L21.4593 8.78797H6.99512C6.59063 8.78797 6.2627 9.1159 6.2627 9.52039C6.2627 9.92488 6.59063 10.2527 6.99512 10.2527H21.4593L18.3741 12.0157C18.023 12.2164 17.9009 12.6638 18.1016 13.015C18.2367 13.2515 18.4839 13.3842 18.7382 13.3842C18.8614 13.3842 18.9863 13.353 19.1009 13.2875L24.5807 10.1562C24.8088 10.0259 24.9497 9.78318 24.9497 9.52029C24.9497 9.2574 24.8089 9.01482 24.5807 8.88435Z" fill="#272343"/>
</svg>
