<svg width="15" height="18" viewBox="0 0 15 18" fill="none" xmlns="http://www.w3.org/2000/svg">
<path d="M7.71341 5.3857C7.03139 5.3857 5.97565 4.61813 4.86385 4.64587C3.39702 4.66437 2.05165 5.48743 1.29488 6.79137C-0.228009 9.40851 0.902476 13.2741 2.38799 15.4011C3.11673 16.4369 3.97627 17.6021 5.1161 17.5651C6.20922 17.5189 6.6203 16.8623 7.94699 16.8623C9.26433 16.8623 9.63804 17.5651 10.7966 17.5374C11.9738 17.5189 12.7212 16.4831 13.4406 15.4381C14.2721 14.2359 14.6178 13.0707 14.6365 13.0059C14.6084 12.9967 12.3475 12.1366 12.3194 9.54723C12.3008 7.38324 14.1039 6.34748 14.188 6.30124C13.1603 4.81234 11.5814 4.64588 11.0301 4.60888C9.59133 4.49791 8.3861 5.3857 7.71341 5.3857ZM10.1426 3.20321C10.7498 2.48188 11.1516 1.47386 11.0395 0.475098C10.1706 0.512089 9.12419 1.04846 8.49821 1.7698C7.93764 2.4079 7.45182 3.43441 7.58261 4.41468C8.54493 4.48866 9.53527 3.92454 10.1426 3.20321Z" fill="white"/>
</svg>
