<svg width="20" height="20" viewBox="0 0 20 20" fill="none" xmlns="http://www.w3.org/2000/svg">
<path fill-rule="evenodd" clip-rule="evenodd" d="M1.25 3.75C1.25 3.08696 1.51339 2.45107 1.98223 1.98223C2.45107 1.51339 3.08696 1.25 3.75 1.25H4.89333C5.61 1.25 6.235 1.73833 6.40917 2.43333L7.33 6.11917C7.40462 6.4175 7.38955 6.73122 7.28667 7.02102C7.18379 7.31082 6.99769 7.56383 6.75167 7.74833L5.67417 8.55667C5.56167 8.64083 5.5375 8.76417 5.56917 8.85C6.03948 10.129 6.78216 11.2906 7.74579 12.2542C8.70941 13.2178 9.87096 13.9605 11.15 14.4308C11.2358 14.4625 11.3583 14.4383 11.4433 14.3258L12.2517 13.2483C12.4362 13.0023 12.6892 12.8162 12.979 12.7133C13.2688 12.6105 13.5825 12.5954 13.8808 12.67L17.5667 13.5908C18.2617 13.765 18.75 14.39 18.75 15.1075V16.25C18.75 16.913 18.4866 17.5489 18.0178 18.0178C17.5489 18.4866 16.913 18.75 16.25 18.75H14.375C7.12667 18.75 1.25 12.8733 1.25 5.625V3.75Z" fill="white"/>
</svg>
