<svg width="20" height="20" viewBox="0 0 20 20" fill="none" xmlns="http://www.w3.org/2000/svg">
<path fill-rule="evenodd" clip-rule="evenodd" d="M9.37222 18.0561L9.43193 18.0902L9.45582 18.1039C9.55053 18.1551 9.65651 18.1819 9.76419 18.1819C9.87187 18.1819 9.97785 18.1551 10.0726 18.1039L10.0964 18.0911L10.157 18.0561C10.4907 17.8583 10.8162 17.6471 11.1329 17.4231C11.9527 16.8443 12.7187 16.1928 13.4216 15.4765C15.0799 13.779 16.8022 11.2284 16.8022 7.94674C16.8022 6.08027 16.0607 4.29023 14.7409 2.97043C13.4211 1.65064 11.6311 0.90918 9.76462 0.90918C7.89814 0.90918 6.10811 1.65064 4.78831 2.97043C3.46851 4.29023 2.72705 6.08027 2.72705 7.94674C2.72705 11.2275 4.45019 13.779 6.10764 15.4765C6.81024 16.1928 7.57595 16.8443 8.39549 17.4231C8.71245 17.6471 9.03829 17.8583 9.37222 18.0561ZM9.76462 10.5059C10.4433 10.5059 11.0943 10.2362 11.5742 9.75631C12.0541 9.27639 12.3237 8.62546 12.3237 7.94674C12.3237 7.26803 12.0541 6.6171 11.5742 6.13718C11.0943 5.65725 10.4433 5.38763 9.76462 5.38763C9.0859 5.38763 8.43498 5.65725 7.95505 6.13718C7.47512 6.6171 7.2055 7.26803 7.2055 7.94674C7.2055 8.62546 7.47512 9.27639 7.95505 9.75631C8.43498 10.2362 9.0859 10.5059 9.76462 10.5059Z" fill="white"/>
</svg>
