<svg width="22" height="24" viewBox="0 0 22 24" fill="none" xmlns="http://www.w3.org/2000/svg">
<path fill-rule="evenodd" clip-rule="evenodd" d="M1.09093 0.466064C0.824514 0.746823 0.671387 1.17895 0.671387 1.74046V21.7134C0.671387 22.2749 0.824514 22.707 1.10089 22.978L1.1731 23.0378L12.5867 11.8466V11.5951L1.16314 0.40625L1.09093 0.466064Z" fill="url(#paint0_linear_134_962)"/>
<path fill-rule="evenodd" clip-rule="evenodd" d="M16.3837 15.5916L12.5767 11.8575V11.5963L16.3849 7.8623L16.4671 7.91235L20.9713 10.422C22.2611 11.1349 22.2611 12.3092 20.9713 13.0318L16.4671 15.5415C16.4659 15.5415 16.3837 15.5916 16.3837 15.5916Z" fill="url(#paint1_linear_134_962)"/>
<path fill-rule="evenodd" clip-rule="evenodd" d="M16.4658 15.5422L12.5766 11.7275L1.09082 22.9897C1.51036 23.4316 2.21625 23.4816 3.00554 23.0495L16.4658 15.5422Z" fill="url(#paint2_linear_134_962)"/>
<path fill-rule="evenodd" clip-rule="evenodd" d="M16.4658 7.91363L3.00554 0.416299C2.21749 -0.0255819 1.51036 0.0342307 1.09082 0.476112L12.5754 11.727L16.4658 7.91363Z" fill="url(#paint3_linear_134_962)"/>
<path opacity="0.2" fill-rule="evenodd" clip-rule="evenodd" d="M16.3843 15.4629L3.01626 22.9103C2.2693 23.3315 1.60327 23.3022 1.17377 22.9201L1.10156 22.9909L1.17377 23.0507C1.60327 23.4316 2.2693 23.4621 3.01626 23.041L16.4764 15.5435L16.3843 15.4629Z" fill="#212121"/>
<path opacity="0.12" fill-rule="evenodd" clip-rule="evenodd" d="M20.9703 12.9019L16.374 15.462L16.4562 15.5425L20.9603 13.0326C21.6052 12.6712 21.9226 12.2 21.9226 11.7275C21.8816 12.1597 21.5542 12.5711 20.9703 12.9019Z" fill="#212121"/>
<path opacity="0.25" fill-rule="evenodd" clip-rule="evenodd" d="M3.00564 0.546289L20.9701 10.5537C21.5539 10.8747 21.8814 11.2959 21.9324 11.728C21.9324 11.2568 21.6149 10.7844 20.9701 10.4231L3.00564 0.415673C1.71589 -0.306989 0.671387 0.294822 0.671387 1.74014V1.87076C0.671387 0.425438 1.71589 -0.166607 3.00564 0.546289Z" fill="#212121"/>
<defs>
<linearGradient id="paint0_linear_134_962" x1="11.5618" y1="1.52578" x2="-6.67231" y2="6.48078" gradientUnits="userSpaceOnUse">
<stop stop-color="#00A0FF"/>
<stop offset="0.007" stop-color="#00A1FF"/>
<stop offset="0.26" stop-color="#00BEFF"/>
<stop offset="0.512" stop-color="#00D2FF"/>
<stop offset="0.76" stop-color="#00DFFF"/>
<stop offset="1" stop-color="#00E3FF"/>
</linearGradient>
<linearGradient id="paint1_linear_134_962" x1="22.6496" y1="11.7275" x2="0.357816" y2="11.7275" gradientUnits="userSpaceOnUse">
<stop stop-color="#FFE000"/>
<stop offset="0.409" stop-color="#FFBD00"/>
<stop offset="0.775" stop-color="#FFA500"/>
<stop offset="1" stop-color="#FF9C00"/>
</linearGradient>
<linearGradient id="paint2_linear_134_962" x1="14.351" y1="13.8028" x2="0.0962657" y2="38.2708" gradientUnits="userSpaceOnUse">
<stop stop-color="#FF3A44"/>
<stop offset="1" stop-color="#C31162"/>
</linearGradient>
<linearGradient id="paint3_linear_134_962" x1="-1.80044" y1="-6.17749" x2="4.55869" y2="4.75005" gradientUnits="userSpaceOnUse">
<stop stop-color="#32A071"/>
<stop offset="0.069" stop-color="#2DA771"/>
<stop offset="0.476" stop-color="#15CF74"/>
<stop offset="0.801" stop-color="#06E775"/>
<stop offset="1" stop-color="#00F076"/>
</linearGradient>
</defs>
</svg>
