<svg width="40" height="40" viewBox="0 0 40 40" fill="none" xmlns="http://www.w3.org/2000/svg">
<g clip-path="url(#clip0_134_528)">
<path d="M39.375 5.56489C39.3613 5.31145 39.186 5.0956 38.9407 5.03028L20.1363 0.0197461C20.0373 -0.00658202 19.9333 -0.00658202 19.8343 0.0197461L1.05922 5.03036C0.81438 5.09575 0.639224 5.31106 0.625162 5.56411C0.612115 5.79848 0.331569 11.3864 2.52899 18.4511C3.82047 22.6031 5.70578 26.3941 8.13265 29.7188C11.1684 33.8777 15.0622 37.3113 19.7056 39.9247C19.7947 39.9748 19.8938 40 19.9929 40C20.0873 40 20.1818 39.9772 20.2678 39.9315C24.919 37.4609 28.8193 34.1144 31.8599 29.9848C34.2896 26.685 36.177 22.883 37.4698 18.6842C39.6684 11.5433 39.3881 5.80575 39.375 5.56489ZM36.3375 18.3789C35.0813 22.4446 33.2523 26.1224 30.9014 29.3101C28.1593 33.0281 24.6918 36.0885 20.5861 38.4189V35.4044C25.9087 32.0442 29.9229 27.2875 32.5178 21.2601C34.6545 16.2974 35.3507 11.5864 35.5585 8.50832C35.5774 8.22864 35.3956 7.97473 35.1247 7.90262L33.9298 7.58426C33.6172 7.50098 33.296 7.68684 33.2127 7.99965C33.1294 8.31231 33.3153 8.63348 33.6281 8.71676L34.3536 8.91012C34.1132 11.8942 33.4042 16.2377 31.4414 20.7967C28.9557 26.5703 25.1231 31.1319 20.0465 34.3606C19.5368 34.0237 19.0357 33.672 18.5528 33.3125C18.2933 33.1192 17.9261 33.1729 17.7328 33.4325C17.5395 33.692 17.5932 34.0592 17.8528 34.2525C18.3574 34.6283 18.8815 34.9946 19.414 35.3462V38.3998C15.3065 35.9426 11.8381 32.801 9.09515 29.0495C6.74492 25.835 4.91664 22.166 3.66102 18.1445C1.85375 12.3557 1.76539 7.4759 1.78414 6.04989L19.414 1.3449V4.02138L4.88375 7.89918C4.61219 7.97168 4.43031 8.22676 4.45031 8.50715C4.60164 10.6248 5.02758 13.9196 6.19781 17.5906C8.13241 23.6595 11.3816 28.7225 15.8551 32.6391C15.9663 32.7365 16.1039 32.7842 16.241 32.7842C16.404 32.7842 16.5662 32.7166 16.6822 32.5842C16.8954 32.3407 16.8708 31.9705 16.6272 31.7573C12.3166 27.9834 9.18335 23.0973 7.31445 17.2347C6.2646 13.9414 5.83226 10.9603 5.65718 8.90598L19.9863 5.08192L31.0953 8.042C31.408 8.1252 31.7291 7.93942 31.8124 7.62661C31.8956 7.31395 31.7098 6.99278 31.397 6.9095L20.5861 4.0288V1.35248L38.2158 6.05013C38.2352 7.50051 38.1506 12.5111 36.3375 18.3789Z" fill="#272343"/>
<path d="M28.8165 13.6918C28.4694 13.3442 28.0076 13.1528 27.5162 13.1528C27.0247 13.1528 26.5629 13.3442 26.2161 13.6915L18.7476 21.1597L14.6702 17.0827C14.3233 16.7352 13.8614 16.5438 13.37 16.5438C12.8785 16.5438 12.4168 16.7351 12.0701 17.0823C11.7227 17.4295 11.5312 17.8913 11.5312 18.3825C11.5312 18.8738 11.7226 19.3354 12.0699 19.6825L17.4472 25.0598C17.7943 25.4073 18.256 25.5987 18.7475 25.5987C19.239 25.5987 19.7007 25.4074 20.0476 25.0601L28.816 16.2917C29.1634 15.9445 29.3548 15.4827 29.3548 14.9915C29.3548 14.5003 29.1635 14.0385 28.8165 13.6918ZM27.9874 15.4627L19.2186 24.2316C19.093 24.3573 18.9257 24.4266 18.7475 24.4266C18.5693 24.4266 18.402 24.3573 18.2762 24.2313L12.8985 18.8536C12.7727 18.7278 12.7033 18.5606 12.7033 18.3824C12.7033 18.2043 12.7727 18.0371 12.8989 17.9108C13.0245 17.785 13.1919 17.7157 13.37 17.7157C13.548 17.7157 13.7153 17.785 13.8413 17.911L18.3333 22.4027C18.5621 22.6315 18.9332 22.6314 19.1619 22.4027L27.0451 14.5198C27.1708 14.394 27.3381 14.3247 27.5162 14.3247C27.6944 14.3247 27.8615 14.394 27.9876 14.5202C28.1135 14.646 28.1829 14.8133 28.1829 14.9913C28.1829 15.1694 28.1134 15.3368 27.9874 15.4627Z" fill="#272343"/>
</g>
<defs>
<clipPath id="clip0_134_528">
<rect width="40" height="40" fill="white"/>
</clipPath>
</defs>
</svg>
