<svg width="14" height="17" viewBox="0 0 14 17" fill="none" xmlns="http://www.w3.org/2000/svg">
<path fill-rule="evenodd" clip-rule="evenodd" d="M6.98826 10.6489C3.92609 10.6489 1.31201 11.1121 1.31201 12.9661C1.31201 14.8202 3.90947 15.3 6.98826 15.3C10.0496 15.3 12.6645 14.8361 12.6645 12.9828C12.6645 11.1295 10.0663 10.6489 6.98826 10.6489V10.6489Z" stroke="#272343" stroke-width="1.5" stroke-linecap="round" stroke-linejoin="round"/>
<path fill-rule="evenodd" clip-rule="evenodd" d="M6.98813 8.00478C7.70776 8.00478 8.41123 7.79139 9.00957 7.39159C9.60792 6.99178 10.0743 6.42353 10.3497 5.75868C10.6251 5.09383 10.6971 4.36225 10.5567 3.65645C10.4163 2.95065 10.0698 2.30233 9.56094 1.79348C9.05209 1.28462 8.40377 0.93809 7.69797 0.797698C6.99217 0.657305 6.26059 0.72936 5.59574 1.00475C4.93089 1.28014 4.36263 1.74649 3.96283 2.34484C3.56303 2.94319 3.34963 3.64666 3.34963 4.36628C3.34627 5.32778 3.72494 6.25124 4.40237 6.93357C5.0798 7.6159 6.00051 8.00122 6.96201 8.00478H6.98813Z" stroke="#272343" stroke-width="1.429" stroke-linecap="round" stroke-linejoin="round"/>
</svg>
